# xmcd
#
# Track frame offsets:
# 150
# 14586
# 29212
# 43249
# 59580
# 72168
# 84381
# 96147
# 108846
# 123228
# 138878
#
# Disc length: 1996 seconds
#
#
# Revision: 0
# Processed by: cddbd v1.5.2PL0 Copyright (c) Steve Scherf et al.
# Submitted via: FreeRIP 2.96 
#
DISCID=9807ca0b
DTITLE=Jeff Griffith - If It Ain't One Thing It's Another
DYEAR=1900
DGENRE=
TTITLE0=It Ain't The Clothes That Make The Man
TTITLE1=Drinkin' Thing
TTITLE2=Let's Make Love Tonight Like There's No Tomorrow
TTITLE3=She Reminds Me Of You
TTITLE4=Holed Up In Some Honky Tonk
TTITLE5=Whiskey Talkin'
TTITLE6=Tonight Was Made For The Two Of Us
TTITLE7=It Was Allways So Easy
TTITLE8=Fishin' Forever
TTITLE9=I'm Your Radio
TTITLE10=If It Ain't One Thing It's Another
EXTD=
EXTT0=
EXTT1=
EXTT2=
EXTT3=
EXTT4=
EXTT5=
EXTT6=
EXTT7=
EXTT8=
EXTT9=
EXTT10=
PLAYORDER=
